<?xml version="1.0" encoding="utf-8"?>
<!-- Generator: Adobe Illustrator 19.0.0, SVG Export Plug-In . SVG Version: 6.00 Build 0)  -->
<svg version="1.1" id="Layer_1" xmlns="http://www.w3.org/2000/svg" xmlns:xlink="http://www.w3.org/1999/xlink" x="0px" y="0px"
	 width="610.031px" height="123.021px" viewBox="1.596 -461.498 610.031 123.021"
	 enable-background="new 1.596 -461.498 610.031 123.021" xml:space="preserve">
<g>
	<g>
		<path fill="#FF704C" d="M498.695-351.493c0,0.256-0.128,0.383-0.383,0.639l-4.849,4.721l1.148,6.636c0,0,0,0.128,0,0.256
			c0,0.127,0,0.383-0.128,0.51c-0.128,0.128-0.255,0.256-0.383,0.256s-0.383,0-0.511-0.128l-5.997-3.19l-5.998,3.19
			c-0.255,0.128-0.383,0.128-0.51,0.128c-0.128,0-0.383-0.128-0.383-0.256c-0.128-0.127-0.128-0.255-0.128-0.51c0,0,0-0.128,0-0.256
			l1.148-6.636l-4.849-4.721c-0.256-0.256-0.383-0.511-0.383-0.639c0-0.383,0.255-0.51,0.766-0.638l6.763-1.021l3.063-6.126
			c0.128-0.383,0.383-0.51,0.639-0.51c0.255,0,0.51,0.127,0.638,0.51l3.063,6.126l6.763,1.021
			C498.44-352.003,498.695-351.876,498.695-351.493z"/>
	</g>
	<g>
		<path fill="#FF704C" d="M526.896-351.493c0,0.256-0.128,0.383-0.383,0.639l-4.85,4.721l1.148,6.636c0,0,0,0.128,0,0.256
			c0,0.127,0,0.383-0.127,0.51c-0.128,0.128-0.256,0.256-0.383,0.256c-0.128,0-0.383,0-0.511-0.128l-5.997-3.19l-5.998,3.19
			c-0.255,0.128-0.383,0.128-0.51,0.128c-0.128,0-0.383-0.128-0.383-0.256c-0.128-0.127-0.128-0.255-0.128-0.51c0,0,0-0.128,0-0.256
			l1.148-6.636l-4.849-4.721c-0.256-0.256-0.383-0.511-0.383-0.639c0-0.383,0.255-0.51,0.766-0.638l6.763-1.021l3.063-6.126
			c0.128-0.383,0.383-0.51,0.638-0.51c0.256,0,0.511,0.127,0.639,0.51l3.063,6.126l6.763,1.021
			C526.641-352.003,526.896-351.876,526.896-351.493z"/>
	</g>
	<g>
		<path fill="#FF704C" d="M555.225-351.493c0,0.256-0.127,0.383-0.383,0.639l-4.849,4.721l1.148,6.636c0,0,0,0.128,0,0.256
			c0,0.127,0,0.383-0.128,0.51c-0.127,0.128-0.255,0.256-0.383,0.256c-0.127,0-0.383,0-0.51-0.128l-5.998-3.19l-5.997,3.19
			c-0.256,0.128-0.383,0.128-0.511,0.128c-0.128,0-0.383-0.128-0.383-0.256c-0.128-0.127-0.128-0.255-0.128-0.51
			c0,0,0-0.128,0-0.256l1.148-6.636l-4.849-4.721c-0.255-0.256-0.383-0.511-0.383-0.639c0-0.383,0.255-0.51,0.766-0.638l6.763-1.021
			l3.063-6.126c0.127-0.383,0.382-0.51,0.638-0.51c0.255,0,0.511,0.127,0.638,0.51l3.063,6.126l6.764,1.021
			C554.97-352.003,555.225-351.876,555.225-351.493z"/>
	</g>
	<g>
		<path fill="#FF704C" d="M583.426-351.493c0,0.256-0.128,0.383-0.383,0.639l-4.849,4.721l1.148,6.636c0,0,0,0.128,0,0.256
			c0,0.127,0,0.383-0.128,0.51c-0.128,0.128-0.255,0.256-0.383,0.256c-0.128,0-0.383,0-0.511-0.128l-5.997-3.19l-5.998,3.19
			c-0.255,0.128-0.382,0.128-0.51,0.128c-0.128,0-0.383-0.128-0.383-0.256c-0.128-0.127-0.128-0.255-0.128-0.51c0,0,0-0.128,0-0.256
			l1.148-6.636l-4.849-4.721c-0.256-0.256-0.383-0.511-0.383-0.639c0-0.383,0.255-0.51,0.766-0.638l6.763-1.021l3.063-6.126
			c0.128-0.383,0.383-0.51,0.639-0.51c0.255,0,0.51,0.127,0.638,0.51l3.063,6.126l6.764,1.021
			C583.171-352.003,583.426-351.876,583.426-351.493z"/>
	</g>
	<g>
		<path fill="#FF704C" d="M611.627-351.493c0,0.256-0.128,0.383-0.383,0.639l-4.849,4.721l1.148,6.636c0,0,0,0.128,0,0.256
			c0,0.127,0,0.383-0.128,0.51c-0.128,0.128-0.255,0.256-0.383,0.256c-0.128,0-0.383,0-0.511-0.128l-5.997-3.19l-5.998,3.19
			c-0.255,0.128-0.383,0.128-0.51,0.128c-0.128,0-0.383-0.128-0.383-0.256c-0.128-0.127-0.128-0.255-0.128-0.51c0,0,0-0.128,0-0.256
			l1.148-6.636l-4.849-4.721c-0.256-0.256-0.383-0.511-0.383-0.639c0-0.383,0.255-0.51,0.766-0.638l6.763-1.021l3.063-6.126
			c0.128-0.383,0.383-0.51,0.638-0.51c0.256,0,0.511,0.127,0.639,0.51l3.063,6.126l6.763,1.021
			C611.372-352.003,611.627-351.876,611.627-351.493z"/>
	</g>
</g>
<g>
	<path fill="#FFFFFF" d="M1.596-459.746h59.712v18.103H23.203v19.125h32.411v17.958H23.203v21.899h39.565v18.104H1.596V-459.746z"/>
	<path fill="#FFFFFF" d="M82.624-420.181h-9.928v-15.913l11.096-0.876l2.482-19.272h17.811v19.272h17.374v16.789h-17.374v29.053
		c0,8.176,3.65,11.534,9.344,11.534c2.336,0,4.964-0.73,6.862-1.461l3.358,15.622c-3.796,1.168-9.052,2.628-16.06,2.628
		c-17.958,0-24.965-11.242-24.965-28.031V-420.181z"/>
	<path fill="#FFFFFF" d="M138.542-420.181h-9.928v-15.913l11.096-0.876l2.482-19.272h17.812v19.272h17.374v16.789h-17.374v29.053
		c0,8.176,3.65,11.534,9.344,11.534c2.336,0,4.964-0.73,6.862-1.461l3.358,15.622c-3.796,1.168-9.052,2.628-16.06,2.628
		c-17.957,0-24.965-11.242-24.965-28.031V-420.181z"/>
	<path fill="#FFFFFF" d="M229.789-391.273c6.717,5.84,15.477,9.928,23.359,9.928c8.906,0,13.286-3.504,13.286-9.198
		c0-5.986-5.401-7.884-13.724-11.388l-12.264-5.256c-9.928-3.942-19.271-12.118-19.271-25.987c0-15.768,14.162-28.323,33.871-28.323
		c10.949,0,22.483,4.38,30.659,12.556l-10.804,13.578c-6.277-4.818-12.264-7.592-19.855-7.592c-7.3,0-12.117,3.212-12.117,8.614
		c0,5.84,6.277,7.884,14.6,11.242l12.117,4.964c11.533,4.672,18.834,12.41,18.834,25.841c0,15.768-13.141,29.491-35.77,29.491
		c-12.41,0-25.549-4.672-35.331-13.724L229.789-391.273z"/>
	<path fill="#FFFFFF" d="M302.787-436.971h17.52l1.461,9.344h0.584c5.985-5.986,12.409-11.096,21.898-11.096
		c10.221,0,16.352,4.38,20.002,12.118c6.424-6.57,13.14-12.118,22.775-12.118c15.621,0,22.629,11.096,22.629,29.199v44.967h-21.461
		v-42.193c0-10.512-2.773-13.724-8.906-13.724c-3.65,0-7.737,2.336-12.409,7.008v48.909h-21.462v-42.193
		c0-10.512-2.773-13.724-8.905-13.724c-3.504,0-7.737,2.336-12.264,7.008v48.909h-21.462V-436.971z"/>
	<path fill="#FFFFFF" d="M466.014-411.129c-0.438-6.424-3.65-10.512-11.388-10.512c-6.132,0-12.264,2.482-19.272,6.57l-7.592-14.162
		c9.198-5.548,19.564-9.49,30.951-9.49c18.542,0,28.761,10.512,28.761,32.703v41.463h-17.52l-1.605-7.445h-0.438
		c-6.133,5.401-12.994,9.197-21.17,9.197c-13.14,0-21.461-9.636-21.461-21.899C425.281-399.888,437.398-408.209,466.014-411.129z
		 M454.042-379.448c4.964,0,8.176-2.336,11.972-6.132v-12.702c-15.33,2.044-20.293,6.424-20.293,11.971
		C445.721-381.639,448.932-379.448,454.042-379.448z"/>
	<path fill="#FFFFFF" d="M505.873-436.971h17.52l1.459,12.702h0.584c5.256-9.782,13.141-14.454,20.586-14.454
		c4.088,0,6.57,0.584,8.613,1.46l-3.504,18.542c-2.627-0.73-4.817-1.168-7.883-1.168c-5.402,0-12.118,3.504-15.914,13.286v42.047
		h-21.461V-436.971z"/>
	<path fill="#FFFFFF" d="M566.9-420.181h-9.928v-15.913l11.096-0.876l2.481-19.272h17.811v19.272h17.373v16.789h-17.373v29.053
		c0,8.176,3.65,11.534,9.344,11.534c2.336,0,4.964-0.73,6.861-1.461l3.358,15.622c-3.796,1.168-9.052,2.628-16.06,2.628
		c-17.957,0-24.965-11.242-24.965-28.031V-420.181z"/>
</g>
</svg>
